<?xml version="1.0" encoding="utf-8"?>
<!DOCTYPE svg PUBLIC "-//W3C//DTD SVG 1.1//EN" "http://www.w3.org/Graphics/SVG/1.1/DTD/svg11.dtd">
<svg version="1.1" id="Layer_1" xmlns="http://www.w3.org/2000/svg" xmlns:xlink="http://www.w3.org/1999/xlink" x="0px" y="0px"
	 width="528.4px" height="128px" viewBox="0 0 528.4 128" style="enable-background:new 0 0 528.4 128;" xml:space="preserve">
<style type="text/css">
<![CDATA[
	.st0{fill:#959595;}
	.st1{fill:#FFFFFF;}
	.st2{fill:#CCCCCC;}
	.st3{fill:#3276B2;}
	.st4{fill:#6F6F6F;}
	.st5{fill:#4089C8;}
	.st6{fill:#418AC9;}
]]>
</style>
<g>
	<circle class="st1" cx="64.3" cy="63.9" r="57.8"/>
	<g>
		<g>
			<path class="st2" d="M84.1,41.1H43.8c-1.9,0-3.5,1.6-3.5,3.5v5c0,0.6,0.1,1.1,0.4,1.6c1.2,0.5,2.3,1.2,3.4,1.9h40
				c1.9,0,3.5-1.6,3.5-3.5v-5C87.6,42.7,86,41.1,84.1,41.1z M82.4,49h-0.5c-0.2,0.2-0.6,0.4-1,0.4h-2.1c-0.4,0-0.7-0.2-1-0.4H74
				v-7.5h8.3V49z M84.1,55.3H46.7c3.2,3.1,5.3,7.3,5.8,12h31.6c1.9,0,3.5-1.6,3.5-3.5v-5C87.6,56.8,86,55.3,84.1,55.3z M82.4,63.5
				h-0.5c-0.2,0.2-0.6,0.4-0.9,0.4h-2.1c-0.4,0-0.7-0.1-0.9-0.4H74V56h8.3V63.5z M84.1,69.4H54.7c0.1,0.6,0.1,1.1,0.1,1.7
				c3.7,1.1,6.5,4.5,6.5,8.6c0,0.6-0.1,1.1-0.2,1.7h23c1.9,0,3.5-1.6,3.5-3.5v-5C87.6,71,86,69.4,84.1,69.4z M82.4,77.9h-0.6
				c-0.2,0.2-0.5,0.3-0.9,0.3h-2.1c-0.3,0-0.6-0.1-0.9-0.3H74v-7.5h8.3V77.9z"/>
			<path class="st6" d="M64,0C28.7,0,0,28.7,0,64c0,35.4,28.7,64,64,64s64-28.7,64-64C128,28.7,99.4,0,64,0z M97.1,89.7
				c-0.6,0-1.1,0.1-1.7,0H36.8c-0.6,0-1.2,0-1.8,0c-13.1,0-23.7-10.6-23.7-23.7c0-10.3,6.6-19,15.7-22.3C26.2,49.2,27,53.8,27,54
				c0,0.2,0.3,0.8,0.6,0.8c0.5-0.1,0.5-0.8,0.5-0.8c-0.3-5.5,1.6-10.4,3.4-13.9c5.7-10.3,16.6-17.2,29.2-17.2
				c15.6,0,28.7,10.7,32.4,25.2c1.3-0.2,2.6-0.4,4-0.4c11.6,0,21,9.4,21,21C118.1,80.3,108.7,89.7,97.1,89.7z"/>
			<g>
				<path class="st5" d="M81.9,53.1H44.1c4,2.8,6.9,7,8,12h29.8c1.9,0,3.5-1.6,3.5-3.5v-5C85.4,54.7,83.9,53.1,81.9,53.1z
					 M80.1,60.3c0,0.8-0.6,1.4-1.4,1.4h-2.1c-0.8,0-1.4-0.6-1.4-1.4v-2.1c0-0.8,0.6-1.4,1.4-1.4h2.1c0.8,0,1.4,0.6,1.4,1.4V60.3z"/>
				<path class="st5" d="M81.9,67.3H52.5c0.1,0.7,0.1,1.4,0.1,2.2c0,0.5,0,0.9-0.1,1.4c4.6,0.3,8.3,3.9,8.7,8.4h20.6
					c1.9,0,3.5-1.6,3.5-3.5v-5C85.4,68.8,83.9,67.3,81.9,67.3z M80.1,74.7c0,0.8-0.6,1.4-1.4,1.4h-2.1c-0.8,0-1.4-0.6-1.4-1.4v-2.1
					c0-0.8,0.6-1.4,1.4-1.4h2.1c0.8,0,1.4,0.6,1.4,1.4V74.7z"/>
				<path class="st5" d="M81.9,38.9H41.6c-1.9,0-3.5,1.6-3.5,3.5v5c0,1.9,1.6,3.5,3.5,3.5h40.3c1.9,0,3.5-1.6,3.5-3.5v-5
					C85.4,40.5,83.9,38.9,81.9,38.9z M80.1,45.8c0,0.8-0.6,1.4-1.4,1.4h-2.1c-0.8,0-1.4-0.6-1.4-1.4v-2.1c0-0.8,0.6-1.4,1.4-1.4h2.1
					c0.8,0,1.4,0.6,1.4,1.4V45.8z"/>
			</g>
			<path class="st3" d="M112.8,54.7L112.8,54.7c3.2,3.7,5.3,8.6,5.3,14c0,11.6-9.4,21-21,21c-0.6,0-1.1,0.1-1.7,0H36.8
				c-0.6,0-1.2,0-1.8,0c-6.7,0-12.7-2.8-17.1-7.3l-0.2,0.2L63.2,128c0.3,0,0.5,0,0.8,0c33.4,0,60.9-25.6,63.8-58.3L112.8,54.7z"/>
		</g>
		<g>
			<path class="st4" d="M185.7,45.4c-2.3-3-6.9-5.2-11.2-5.2c-5,0-10.7,2.4-10.7,8.3c0,5.6,4.7,7.2,11.6,9.4
				c7.8,2.4,17.8,5.8,17.8,17.8c0,13.1-10.2,19.4-22.2,19.4c-7.9,0-16.1-3-20.9-8.7l7.7-7.2c3,4.1,8.5,6.7,13.3,6.7
				c5.1,0,11-2.5,11-9c0-6.4-6.4-8.2-14-10.6c-7.4-2.3-15.4-5.9-15.4-17.3c0-12.4,11.3-17.9,22.3-17.9c6.1,0,13.1,2.1,17.7,6.5
				L185.7,45.4z"/>
			<path class="st4" d="M239.8,76.2h-31.4c0.4,5.8,5.8,10.1,11.8,10.1c5.2,0,8.6-2.1,10.9-5.3l6.9,5.5c-4,5.5-9.9,8.3-17.7,8.3
				c-12.7,0-22.2-8.2-22.2-21.6c0-13.3,9.4-22.1,21.8-22.1c11.5,0,19.9,7.5,19.9,22.4C239.9,74.4,239.9,75.2,239.8,76.2z
				 M229.6,68.8c0-5.3-3-10-9.7-10c-6.1,0-11,4.2-11.4,10H229.6z"/>
			<path class="st4" d="M246.4,52.3h9.9v6.9h0.2c2.2-4.7,6.6-8.1,12-8.1c0.8,0,1.8,0.1,2.5,0.3v9.5c-1.4-0.3-2.2-0.4-3.2-0.4
				c-9.3,0-11.1,8.1-11.1,11.1v22.1h-10.3V52.3z"/>
			<path class="st4" d="M276,52.3h11.3l10.8,30.1h0.2l10.9-30.1h10.9l-16.4,41.3h-11L276,52.3z"/>
			<path class="st4" d="M362.1,76.2h-31.4c0.4,5.8,5.8,10.1,11.8,10.1c5.2,0,8.6-2.1,10.9-5.3l6.9,5.5c-4,5.5-9.9,8.3-17.7,8.3
				c-12.7,0-22.2-8.2-22.2-21.6c0-13.3,9.4-22.1,21.8-22.1c11.5,0,19.9,7.5,19.9,22.4C362.2,74.4,362.2,75.2,362.1,76.2z
				 M351.9,68.8c0-5.3-3-10-9.7-10c-6.1,0-11,4.2-11.4,10H351.9z"/>
			<path class="st4" d="M368.4,52.3h9.9v6.9h0.2c2.2-4.7,6.6-8.1,12-8.1c0.8,0,1.8,0.1,2.5,0.3v9.5c-1.4-0.3-2.2-0.4-3.2-0.4
				c-9.3,0-11.1,8.1-11.1,11.1v22.1h-10.3V52.3z"/>
			<path class="st0" d="M402.2,94c-2.8,0-4.6-2.2-4.6-4.6c0-2.4,1.9-4.6,4.6-4.6s4.6,2.2,4.6,4.6C406.9,91.8,405,94,402.2,94z"/>
			<path class="st0" d="M418.1,114.2h-5.8V53.3h5.8v7h0.3c3.4-5.2,9.4-8,15.1-8c12.6,0,20.8,9.3,20.8,21.2s-8.3,21.1-20.8,21.1
				c-5.8,0-11.8-2.8-15.1-7.8h-0.3V114.2z M432.9,57.2c-9,0-15.5,7.1-15.5,16.3c0,9.2,6.4,16.2,15.5,16.2c9.7,0,15.2-7.2,15.2-16.2
				C448.1,64.5,442.6,57.2,432.9,57.2z"/>
			<path class="st0" d="M460.5,53.3h5.6c0.2,2.1,0.3,5.2,0.3,6.9h0.2c2.2-4.6,7.2-7.9,12.9-7.9c1.5,0,2.7,0.1,3.9,0.4l-0.8,5.5
				c-0.7-0.3-2.6-0.5-4.1-0.5c-6.2,0-11.8,4.5-11.8,15.2v20.6h-5.8V62.1C460.9,60,460.8,56,460.5,53.3z"/>
			<path class="st0" d="M506.9,94.6c-12.5,0-21.4-9-21.4-21.1c0-12.1,8.9-21.2,21.4-21.2c12.6,0,21.5,9,21.5,21.2
				C528.4,85.5,519.5,94.6,506.9,94.6z M506.9,57.2c-9.3,0-15.2,7.2-15.2,16.3c0,9,5.9,16.2,15.2,16.2c9.4,0,15.3-7.1,15.3-16.2
				C522.2,64.4,516.3,57.2,506.9,57.2z"/>
		</g>
	</g>
</g>
</svg>
